<?xml version="1.0" encoding="utf-8"?>
<!-- Generator: Adobe Illustrator 24.0.0, SVG Export Plug-In . SVG Version: 6.00 Build 0)  -->
<svg version="1.1" id="Layer_1" xmlns="http://www.w3.org/2000/svg" xmlns:xlink="http://www.w3.org/1999/xlink" x="0px" y="0px"
	 viewBox="0 0 500 500" style="enable-background:new 0 0 500 500;" xml:space="preserve">
<style type="text/css">
	.st0{fill-rule:evenodd;clip-rule:evenodd;fill:#EBEBFF;}
</style>
<path class="st0" d="M0.18,500.84V100.71h80.73c7.6,3.02,14.76,6.79,21.28,11.48c18.04,12.99,27.58,32.48,31.9,53.77
	c3.54,17.45,5.7,37.33,19.43,50.2c8.87,8.31,21.13,11.98,33.17,13.63c12.04,1.64,24.28,1.52,36.26,3.56
	c26.87,4.58,51.11,21.57,59.19,48.42c2.7,8.97,3.46,18.4,5.57,27.53c2.11,9.13,5.86,18.34,13.11,24.28
	c6.58,5.39,15.19,7.42,23.18,10.36c23.91,8.78,47.27,27.66,53.68,53.22c4.14,16.51,1.11,34.51,7.35,50.54
	c6.71,17.22,22.96,26.04,38.73,33.69c13.36,6.48,26.71,12.97,40.07,19.45H0.18z"/>
</svg>
