<?xml version="1.0" encoding="utf-8"?>
<!-- Generator: Adobe Illustrator 24.0.0, SVG Export Plug-In . SVG Version: 6.00 Build 0)  -->
<svg version="1.1" id="Layer_1" xmlns="http://www.w3.org/2000/svg" xmlns:xlink="http://www.w3.org/1999/xlink" x="0px" y="0px"
	 viewBox="0 0 500 366.67" style="enable-background:new 0 0 500 366.67;" xml:space="preserve">
<style type="text/css">
	.st0{fill:#EBEBFF;}
	.st1{fill:#D6D7F4;}
	.st2{fill:#3D5AC4;}
	.st3{fill:#5571E9;}
	.st4{fill:#27429C;}
	.st5{fill:#312C76;}
	.st6{fill:#151247;}
	.st7{opacity:0.16;fill:#5571E9;}
	.st8{clip-path:url(#XMLID_5_);fill:#FFFFFF;}
	.st9{fill:#14103D;}
	.st10{fill:#EB8175;}
	.st11{fill:#231C61;}
	.st12{fill:#E1AD9D;}
	.st13{fill:#C8C6F2;}
	.st14{fill:#D8D7FD;}
	.st15{fill:#091218;}
	.st16{fill:#1B2934;}
	.st17{fill:#FFFFFF;}
	.st18{fill:#E16C5F;}
	.st19{clip-path:url(#XMLID_6_);fill:#231C61;}
	.st20{fill:#F5D100;}
	.st21{fill:none;stroke:#F1AB00;stroke-width:0.2802;stroke-miterlimit:10;}
	.st22{fill:none;stroke:#FFFFFF;stroke-width:1.1206;stroke-linecap:round;stroke-linejoin:round;stroke-miterlimit:10;}
	.st23{fill:#334FBE;}
	.st24{fill:#4265D1;}
	.st25{clip-path:url(#XMLID_7_);fill:#231C61;}
	.st26{fill:none;stroke:#F1AB00;stroke-width:0.2834;stroke-miterlimit:10;}
	.st27{fill:none;stroke:#FFFFFF;stroke-width:1.1334;stroke-linecap:round;stroke-linejoin:round;stroke-miterlimit:10;}
	.st28{fill:none;stroke:#3D5AC4;stroke-width:2.6489;stroke-miterlimit:10;}
	.st29{fill:none;stroke:#5571E9;stroke-width:2.6489;stroke-miterlimit:10;}
	.st30{fill:#2F4DAB;}
	.st31{fill:none;stroke:#231C61;stroke-width:2.1624;stroke-miterlimit:10;}
	.st32{fill:none;stroke:#231C61;stroke-width:1.1138;stroke-miterlimit:10;}
	.st33{fill:#373482;}
	.st34{fill:none;stroke:#5571E9;stroke-width:2.6489;stroke-linecap:round;stroke-linejoin:round;stroke-miterlimit:10;}
	.st35{clip-path:url(#XMLID_9_);fill:#FAFAFA;}
	.st36{fill:#E8C400;}
	.st37{clip-path:url(#XMLID_10_);fill:#FAFAFA;}
	.st38{fill:none;stroke:#3D5AC4;stroke-width:1.1366;stroke-linecap:round;stroke-linejoin:round;stroke-miterlimit:10;}
</style>
<g>
	<g>
		<path class="st0" d="M486.69,252.89c5.21-16.89,6.43-34.85,2.69-52.13c-5.84-27.02-24.67-59.73-78.99-73.85
			C307.54,100.19,271.83,22.04,175.63,46.93c0,0-51.63,9.38-76.06,94.81c-24.43,85.43-120.18,86.88-87.21,161.26
			c5.39,12.16,19.9,25.42,40.73,37.95l390.14-1.31C470.18,307.23,478.57,279.18,486.69,252.89z"/>
	</g>
	<g>
		<path class="st1" d="M394.63,191.79h-14.64v-16.01c0-8.04-5.6-14.75-13.11-16.5v-19.87h-5.39v19.5
			c-8.64,0.78-15.42,8.03-15.42,16.88v16.48h-14.56v18.37h-0.98v34.14l-26.47-0.19v-40.8h-30.33v29.9h-21.28v29.05h-25.72v76.88
			h85.44v-0.01h18.35v0.01h107.13v-96.95h-43.08L394.63,191.79z"/>
		<polygon class="st1" points="92.59,234.05 92.59,195.83 106.91,195.83 106.91,175.39 112.3,175.39 112.3,195.83 125.5,195.83 
			125.5,234.05 140.31,234.05 140.31,256.95 163.91,256.95 163.91,178.95 213.19,178.95 213.19,339.61 181.08,339.61 167.25,339.61 
			132.44,339.61 116.36,339.61 74.36,339.61 74.36,234.05 		"/>
	</g>
</g>
<g>
	<g>
		<g>
			<path class="st2" d="M361.8,339.22l-224.59,0.18c-8.51,0.01-15.41-6.88-15.41-15.39l0,0l255.4-0.2l0,0
				C377.19,332.31,370.3,339.21,361.8,339.22z"/>
			<path class="st3" d="M361.79,333.92l-224.59,0.18c-6.64,0.01-12.28-4.2-14.45-10.09l-0.96,0c0.01,8.51,6.91,15.4,15.41,15.39
				l224.59-0.18c8.51-0.01,15.4-6.91,15.39-15.41l-0.96,0C374.07,329.7,368.43,333.91,361.79,333.92z"/>
			<path class="st4" d="M264,329.05l-29.02,0.02c-2.85,0-5.16-2.3-5.16-5.15l0,0l39.33-0.03l0,0
				C269.16,326.74,266.85,329.05,264,329.05z"/>
		</g>
		<g>
			<path class="st3" d="M364.04,323.82L134.94,324l-0.11-138.29c-0.01-7.93,6.42-14.37,14.35-14.38l200.38-0.16
				c7.93-0.01,14.37,6.42,14.38,14.35L364.04,323.82z"/>
			<rect x="146.81" y="183.2" class="st5" width="205.25" height="128.76"/>
			<rect x="146.85" y="299.65" class="st6" width="205.25" height="12.31"/>
			<rect x="146.76" y="183.2" class="st6" width="205.25" height="6.11"/>
			<g>
				<polygon class="st7" points="215.21,183.23 146.81,251.73 146.86,312.04 147.01,312.04 275.66,183.18 				"/>
				<polygon class="st7" points="173.36,312.02 203.67,311.99 332.33,183.14 302.02,183.17 				"/>
				<polygon class="st7" points="327.96,311.9 352.09,287.74 352.05,242.02 279.64,311.93 				"/>
			</g>
		</g>
	</g>
	<g>
		<defs>
			<rect id="XMLID_8_" x="134.83" y="238.2" width="229.22" height="25.3"/>
		</defs>
		<use xlink:href="#XMLID_8_"  style="overflow:visible;fill:#F5D100;"/>
		<clipPath id="XMLID_5_">
			<use xlink:href="#XMLID_8_"  style="overflow:visible;"/>
		</clipPath>
		<polygon class="st8" points="163.42,272.38 143.7,272.38 160.68,233.54 180.4,233.54 		"/>
		<polygon class="st8" points="205.48,272.38 185.76,272.38 202.74,233.54 222.46,233.54 		"/>
		<polygon class="st8" points="247.54,272.38 227.82,272.38 244.79,233.54 264.52,233.54 		"/>
		<polygon class="st8" points="289.6,272.38 269.88,272.38 286.85,233.54 306.58,233.54 		"/>
		<polygon class="st8" points="331.66,272.38 311.94,272.38 328.91,233.54 348.63,233.54 		"/>
	</g>
</g>
<g>
	<g>
		<g>
			<g>
				<g>
					<path class="st9" d="M116.42,194.51l-4.48,0.17l-2.62-0.83c-1.21-0.38-2.52,0.08-3.22,1.12l-0.33,0.49l13.1,7.24l2.53-5.43
						L116.42,194.51z"/>
					<path class="st9" d="M118.87,202.81l-13.2-7.29l0.46-0.84c0.09-0.16,0.3-0.22,0.46-0.13l12.9,7.13L118.87,202.81"/>
				</g>
				<polygon class="st10" points="121.4,197.26 124.86,191.28 121.4,185.09 116.42,194.51 				"/>
			</g>
			<path class="st9" d="M148.51,162.82c0,0-18.67-5.36-20.47-0.32c-1.8,5.04-12.69,27.34-12.69,27.34l8.13,4.24l12.19-21.18
				l16.4-1.43L148.51,162.82z"/>
		</g>
		<g>
			<g>
				<g>
					<path class="st9" d="M133.34,201.3l-3.66,2.33l-2.7,0.54c-1.24,0.25-2.17,1.29-2.28,2.55l-0.05,0.59l14.96-0.02l-0.42-5.98
						L133.34,201.3z"/>
					<path class="st9" d="M139.68,207.39l-15.08,0.02l0-0.95c0-0.19,0.15-0.34,0.34-0.34l14.74-0.02L139.68,207.39"/>
				</g>
				<polygon class="st10" points="139.2,201.31 139.68,191.28 133.72,190.6 133.34,201.3 				"/>
			</g>
			<path class="st11" d="M151.03,161.96l-17.59,0.8c0,0-2.53,0.14-2.36,6.06c0.17,5.92,0.15,29.76,0.15,29.76l8.45,0.29l1.62-24.97
				l17.61-0.22c3.71-0.05,7.17-2.17,8.64-5.58c0.56-1.3,0.83-2.77,0.48-4.3L151.03,161.96z"/>
		</g>
	</g>
	<g>
		<g>
			<g>
				<path class="st12" d="M134.33,158.41c0,1.67-1.13,1.92-2.8,1.93c-1.67,0-3.25-0.24-3.25-1.91c0-1.67,1.35-3.03,3.02-3.03
					C132.97,155.39,134.33,156.74,134.33,158.41z"/>
				<path class="st12" d="M136.46,160.12l-3.49,0.01c-0.91,0-1.66-0.74-1.66-1.66l0,0c0-0.91,0.74-1.66,1.66-1.66l3.49-0.01
					c0.91,0,1.66,0.74,1.66,1.66l0,0C138.12,159.37,137.37,160.11,136.46,160.12z"/>
			</g>
			<path class="st13" d="M136.32,160.47l-1.17-5.72l14.36-1.57l2.87-16.78c0.29-1.53,2.5-3.42,4.02-3.13l-0.44-0.12
				c1.53,0.29,2.93,2.06,2.64,3.59l-2.8,20.08c-0.21,1.08-1.03,1.95-2.1,2.21L136.32,160.47z"/>
		</g>
		<path class="st14" d="M165.02,133.65c0.3,0.02,0.59,0.09,0.86,0.2l0.14,0.06c2.47,0.96,4.14,3.61,4.25,6.09l-2.25,23.81
			c-14.88-0.13-17-1.84-17-1.84l1.18-24.36c0.18-2.3,1.23-4.46,3.85-4.68l0,0L165.02,133.65z"/>
		<g>
			<g>
				<g>
					<path class="st10" d="M148.63,160.28c0.11,1.67-1,1.99-2.66,2.11c-1.67,0.11-3.25-0.03-3.37-1.69
						c-0.11-1.67,1.14-3.11,2.81-3.22C147.07,157.36,148.51,158.62,148.63,160.28z"/>
					<path class="st10" d="M150.86,161.84l-3.49,0.24c-0.91,0.06-1.71-0.63-1.77-1.54l0,0c-0.06-0.91,0.63-1.71,1.54-1.77l3.49-0.24
						c0.91-0.06,1.71,0.63,1.77,1.54l0,0C152.46,160.99,151.77,161.78,150.86,161.84z"/>
				</g>
				<path class="st14" d="M150.75,162.21l-1.54-5.63l15.65-2.52l-0.89-14.56c0.19-1.54,1.88-3.27,3.42-3.09l0,0
					c1.54,0.19,3.06,1.86,2.87,3.4l1.13,17.44c-0.13,1.09-0.89,2.01-1.95,2.34L150.75,162.21z"/>
			</g>
		</g>
		<g>
			<path class="st15" d="M123.66,142.87l17.08,1.61c0.56,0.05,1.01,0.49,1.08,1.05l1.79,15.39c0.09,0.76-0.54,1.4-1.3,1.33
				l-17.36-1.64c-0.57-0.05-1.02-0.5-1.08-1.07l-1.51-15.36C122.29,143.43,122.92,142.8,123.66,142.87z"/>
			<path class="st16" d="M122.68,142.77l17.08,1.61c0.56,0.05,1.01,0.49,1.07,1.05l1.79,15.39c0.09,0.76-0.54,1.4-1.3,1.33
				l-17.36-1.64c-0.57-0.05-1.02-0.5-1.08-1.07l-1.51-15.36C121.31,143.33,121.93,142.7,122.68,142.77z"/>
			<path class="st15" d="M143.14,161.03l11.67,1.1c0.36,0.03,0.62,0.35,0.58,0.7l0,0c-0.03,0.36-0.35,0.62-0.7,0.58l-12.38-1.12
				L143.14,161.03z"/>
			<path class="st17" d="M132.47,152.11c-0.1,1.03-1.01,1.78-2.04,1.69c-1.03-0.1-1.78-1.01-1.69-2.04c0.1-1.03,1.01-1.78,2.04-1.69
				C131.81,150.17,132.57,151.08,132.47,152.11z"/>
		</g>
		<polygon class="st13" points="163.43,142.86 163.81,153.81 149.21,156.58 162.08,152.56 		"/>
	</g>
	<g>
		<g>
			<path class="st10" d="M155.68,132.19l0.98,2.62c0.35,0.95,1.23,1.6,2.23,1.66l0,0c1.91,0.13,3.28-1.8,2.53-3.57l-1.71-4.02
				L155.68,132.19z"/>
			<path class="st18" d="M156.55,134.53c0,0,4.81-0.91,4.1-5.11c-0.71-4.21-5.23-0.92-5.23-0.92l0.44,4.2L156.55,134.53z"/>
			<g>
				<g>
					<defs>
						<path id="XMLID_1_" d="M149.13,121.94c-1.77,3.77-0.14,8.27,3.64,10.03c3.77,1.77,8.27,0.14,10.03-3.64
							c1.77-3.77,0.14-8.27-3.64-10.03C155.39,116.54,150.89,118.17,149.13,121.94z"/>
					</defs>
					<use xlink:href="#XMLID_1_"  style="overflow:visible;fill:#EB8175;"/>
					<clipPath id="XMLID_6_">
						<use xlink:href="#XMLID_1_"  style="overflow:visible;"/>
					</clipPath>
					<path class="st19" d="M158.76,126.63c0,0-1.19,6.04,3.25,6.18c4.44,0.13,2.03-11.34,2.03-11.34l-7.03-7.08l-10.76,2.65
						l1.07,6.96c0,0,1.71,0.91,10.96-0.62L158.76,126.63z"/>
					<polygon class="st19" points="154.37,121.9 157.91,127.07 160.95,123.7 					"/>
				</g>
				<path class="st10" d="M157.58,125.22c-0.5,1.07-0.04,2.34,1.03,2.84c1.07,0.5,2.34,0.04,2.84-1.03c0.5-1.07,0.04-2.34-1.03-2.84
					C159.34,123.7,158.07,124.16,157.58,125.22z"/>
			</g>
		</g>
		<g>
			<path class="st20" d="M147.66,123.88c0,0-1.63-5.95,2.23-9.63c3.18-3.04,8.38-2.84,11.2,0.53c1.33,1.58,2.39,3.97,2.49,7.55
				L147.66,123.88z"/>
			<path class="st21" d="M148.48,123.78l-0.05-3.71c-0.01-0.94,0.72-1.72,1.67-1.77l0,0c0.93-0.04,1.73,0.65,1.82,1.57l0.37,3.7"/>
			<line class="st22" x1="163.58" y1="122.33" x2="146.26" y2="123.99"/>
		</g>
	</g>
</g>
<g>
	<g>
		<g>
			<polygon class="st10" points="321.23,322.97 325.11,326.73 320.68,329.11 316.89,325.4 			"/>
			<path class="st9" d="M293.91,294.88l2.59,11.48c0.52,2.3,1.52,4.51,2.95,6.53l17.07,15.34l6.75-5.5l-14.58-15.44l-5.34-20.36
				L293.91,294.88z"/>
			<g>
				<path class="st9" d="M320.56,329l-1.4,4.46l-1.6,2.22c-0.73,1.02-0.71,2.41,0.07,3.4l0.36,0.46l10.89-10.15l-4.36-4.08
					L320.56,329z"/>
				<polyline class="st9" points="328.99,329.43 318.01,339.66 317.13,338.71 328.11,328.48 328.99,329.43 				"/>
			</g>
		</g>
		<g>
			<polygon class="st10" points="283.89,329.95 282.44,334.81 277.44,333.47 278.9,328.7 			"/>
			<path class="st11" d="M290.6,282.07l-14.01,47.34l8.84,2.21l7.88-23.73l9.68-15.53c0.49-0.69,0.98-1.42,1.38-2.17
				c0.77-1.42,1.12-2.97,1.11-4.52l-0.03-3.08L290.6,282.07z"/>
			<g>
				<path class="st9" d="M277.73,333l-4.42,1.63l-2.76,0.09c-1.27,0.04-2.35,0.92-2.67,2.14l-0.15,0.57l14.8,2.43l0.57-5.98
					L277.73,333z"/>
				<polyline class="st9" points="282.58,339.99 267.66,337.54 267.87,336.26 282.79,338.71 282.58,339.99 				"/>
			</g>
		</g>
	</g>
	<g>
		<g>
			<g>
				<polygon class="st23" points="271.05,233.99 265.39,242.82 268.1,244.77 273.96,235.42 				"/>
				<path class="st24" d="M263.7,219.35c0,0,2.62,10.95,15.87,15.26c0.38,0.12,0.67,0.44,0.73,0.84c0.17,1.27,0.17,4.01-2.76,4.82
					c-0.28,0.08-0.59,0.02-0.83-0.13c-2.03-1.27-12-7.1-21.68-5.42L263.7,219.35z"/>
				<path class="st23" d="M263.7,219.35c0,0-2.43,10.92-8.67,15.37C255.03,234.72,255.91,225.15,263.7,219.35z"/>
			</g>
			<g>
				<g>
					<g>
						<path class="st10" d="M263.54,242.25c-0.41,2.01,1.24,4.46,3.25,4.87c2.01,0.41,3.97-0.89,4.38-2.89
							c0.41-2.01-1.24-4.46-3.25-4.87C265.92,238.94,263.96,240.24,263.54,242.25z"/>
					</g>
					<polyline class="st10" points="274.18,248.14 270.26,244.04 267.69,247.2 274.18,251.95 					"/>
				</g>
				<path class="st13" d="M273.56,244.35l-4.15,6.17l11.34,10.38c0.69,0.2,1.41,0.27,2.13,0.21l14.98-1.94
					c2.36-0.11,4.18-2.12,4.07-4.48l0,0c-0.11-2.36,0.34-5.78-2.02-5.66l-17.4,3.57L273.56,244.35z"/>
			</g>
		</g>
		<g>
			<g>
				<path class="st14" d="M307.14,258.5c0.4-3.27-1.08-6.51-3.86-8.29c-1.25-0.8-2.48-1.34-3.37-1.19c-2.99,0.5-6.06,1.86-7.37,5.89
					c-2.23,6.86-2.87,27.12-2.87,27.12l16.05,0.55L307.14,258.5z"/>
			</g>
			<polygon class="st13" points="301.22,259.01 306.04,276.75 307.02,261.7 			"/>
		</g>
		<g>
			<g>
				<g>
					<path class="st10" d="M320.89,294.02c1.52-1.38,1.63-4.34,0.25-5.85c-1.38-1.52-3.73-1.63-5.25-0.25
						c-1.52,1.38-1.63,4.34-0.25,5.85C317.02,295.28,319.37,295.4,320.89,294.02z"/>
				</g>
				<polyline class="st10" points="313.61,281.38 316.53,288.6 320.47,287.57 318.03,279.9 				"/>
			</g>
			<path class="st14" d="M313.79,286.95l8.04-1.77l-5.45-18.64c-0.2-0.69-0.53-1.34-0.96-1.91l-10.01-12.46
				c-1.35-1.94-3.63-1.59-5.57-0.24l0,0c-1.94,1.35-2.41,4.02-1.06,5.96l9.64,11.59L313.79,286.95z"/>
		</g>
	</g>
	<g>
		<g>
			<path class="st10" d="M296.15,246.59l0.3,2.81c0.11,1.01,0.8,1.87,1.77,2.19l0,0c1.84,0.6,3.67-0.95,3.37-2.86l-0.68-4.37
				L296.15,246.59z"/>
			<path class="st18" d="M296.42,249.09c0,0,4.96-0.16,5.31-4.46c0.35-4.3-4.91-1.74-4.91-1.74l-0.61,4.22L296.42,249.09z"/>
			<g>
				<g>
					<defs>
						<path id="XMLID_11_" d="M292.28,234.91c-2.67,3.26-2.19,8.07,1.07,10.74c3.26,2.67,8.07,2.19,10.74-1.07
							c2.67-3.26,2.19-8.07-1.07-10.74C299.76,231.17,294.95,231.65,292.28,234.91z"/>
					</defs>
					<use xlink:href="#XMLID_11_"  style="overflow:visible;fill:#EB8175;"/>
					<clipPath id="XMLID_7_">
						<use xlink:href="#XMLID_11_"  style="overflow:visible;"/>
					</clipPath>
					<path class="st25" d="M300.56,241.9c0,0-2.67,5.63,1.65,6.87c4.32,1.24,4.81-10.61,4.81-10.61l-5.13-8.69l-11.21-0.08
						l-0.69,7.09c0,0,1.45,1.32,10.9,2.13L300.56,241.9z"/>
					<polygon class="st25" points="297.43,236.17 299.61,242.12 303.43,239.57 					"/>
				</g>
				<path class="st10" d="M299.74,240.23c-0.75,0.92-0.62,2.28,0.3,3.04c0.92,0.76,2.28,0.62,3.04-0.3c0.75-0.92,0.62-2.28-0.3-3.04
					C301.86,239.17,300.5,239.31,299.74,240.23z"/>
			</g>
		</g>
		<g>
			<path class="st20" d="M290.31,237.1c0,0-0.37-6.23,4.21-9.07c3.78-2.34,8.88-1.06,10.98,2.86c0.98,1.84,1.54,4.42,0.89,7.99
				L290.31,237.1z"/>
			<path class="st26" d="M291.15,237.17l0.73-3.68c0.19-0.93,1.08-1.55,2.02-1.4l0,0c0.93,0.15,1.58,1,1.47,1.93l-0.4,3.74"/>
			<line class="st27" x1="306.39" y1="238.88" x2="288.9" y2="236.92"/>
		</g>
	</g>
</g>
<g>
	<g>
		<line class="st28" x1="413.1" y1="284.13" x2="395.01" y2="301.97"/>
		<line class="st28" x1="413.1" y1="265.08" x2="395.01" y2="282.91"/>
		<line class="st28" x1="413.1" y1="246.02" x2="395.01" y2="263.85"/>
		<line class="st28" x1="413.1" y1="226.96" x2="395.01" y2="244.79"/>
		<line class="st28" x1="413.1" y1="207.9" x2="395.01" y2="225.74"/>
		<line class="st28" x1="413.1" y1="188.85" x2="395.01" y2="206.68"/>
		<line class="st28" x1="413.1" y1="169.79" x2="395.01" y2="187.62"/>
		<line class="st28" x1="413.1" y1="150.73" x2="395.01" y2="168.56"/>
		<line class="st28" x1="413.1" y1="131.67" x2="395.01" y2="149.51"/>
		<line class="st28" x1="413.1" y1="112.62" x2="395.01" y2="130.45"/>
		<line class="st28" x1="413.1" y1="93.56" x2="395.01" y2="111.39"/>
		<line class="st28" x1="395.01" y1="282.91" x2="413.1" y2="282.91"/>
		<line class="st28" x1="395.01" y1="263.85" x2="413.1" y2="263.85"/>
		<line class="st28" x1="395.01" y1="244.79" x2="413.1" y2="244.79"/>
		<line class="st28" x1="395.01" y1="225.74" x2="413.1" y2="225.74"/>
		<line class="st28" x1="395.01" y1="206.68" x2="413.1" y2="206.68"/>
		<line class="st28" x1="395.01" y1="187.62" x2="413.1" y2="187.62"/>
		<line class="st28" x1="395.01" y1="168.56" x2="413.1" y2="168.56"/>
		<line class="st28" x1="395.01" y1="149.51" x2="413.1" y2="149.51"/>
		<line class="st28" x1="395.01" y1="130.45" x2="413.1" y2="130.45"/>
		<line class="st28" x1="395.01" y1="111.39" x2="413.1" y2="111.39"/>
		<line class="st29" x1="395.01" y1="307.13" x2="395.01" y2="96.61"/>
		<line class="st29" x1="413.1" y1="307.13" x2="413.1" y2="96.61"/>
		<rect x="385.69" y="301.97" class="st11" width="36.02" height="37.43"/>
	</g>
	<g>
		<g>
			<path class="st2" d="M414.87,96.61h-22.26c-2.38,0-4.3-1.93-4.3-4.3V65.26c0-2.38,1.93-4.3,4.3-4.3h22.26
				c2.38,0,4.3,1.93,4.3,4.3v27.05C419.17,94.68,417.24,96.61,414.87,96.61z"/>
			<path class="st30" d="M404.54,86.23h-13.42V69.56h13.42c1.8,0,3.26,1.46,3.26,3.26v10.16C407.8,84.77,406.34,86.23,404.54,86.23z
				"/>
		</g>
		<g>
			<g>
				<line class="st31" x1="275.66" y1="98.55" x2="290.13" y2="140.59"/>
				<line class="st31" x1="265.6" y1="93.56" x2="237.38" y2="131.67"/>
				<g>
					<path class="st20" d="M272.37,110.1l32.47,42.46c2.29,3,1.72,7.29-1.28,9.59l-42.46,32.47c-3,2.29-7.29,1.72-9.59-1.28
						l-32.47-42.46c-2.29-3-1.72-7.29,1.28-9.59l42.46-32.47C265.78,106.52,270.07,107.1,272.37,110.1z"/>
					<path class="st32" d="M270.47,117.66l26.57,34.74c1.88,2.45,1.41,5.97-1.05,7.84l-34.74,26.57c-2.45,1.88-5.97,1.41-7.84-1.05
						l-26.57-34.74c-1.88-2.45-1.41-5.97,1.05-7.84l34.74-26.57C265.08,114.74,268.6,115.21,270.47,117.66z"/>
					<g>
						<path class="st11" d="M264.42,165.95c-0.76,5.66-9.35,4.52-8.59-1.15C256.59,159.09,265.18,160.23,264.42,165.95z
							 M268.11,134.32l-3.37,23.8l-7.22-0.96c1.07-8.01,1.96-15.79,3.03-23.84L268.11,134.32z"/>
					</g>
				</g>
			</g>
			<g>
				<g>
					<circle class="st11" cx="271.53" cy="90" r="12.1"/>
					<path class="st33" d="M280.09,90c0,4.72-3.83,8.55-8.55,8.55c-4.72,0-8.55-3.83-8.55-8.55c0-4.72,3.83-8.55,8.55-8.55
						C276.26,81.44,280.09,85.27,280.09,90z"/>
				</g>
				<g>
					<line class="st28" x1="318.97" y1="35.32" x2="318.97" y2="60.96"/>
					<line class="st28" x1="295.98" y1="35.32" x2="295.98" y2="60.96"/>
					<line class="st28" x1="341.9" y1="35.32" x2="341.9" y2="60.96"/>
					<line class="st28" x1="367.36" y1="35.32" x2="367.36" y2="60.96"/>
					<line class="st28" x1="391.12" y1="35.32" x2="391.12" y2="60.96"/>
					<line class="st28" x1="415.75" y1="35.32" x2="415.75" y2="60.96"/>
					<line class="st28" x1="439.94" y1="35.32" x2="439.94" y2="60.96"/>
					<line class="st28" x1="294.78" y1="60.96" x2="318.97" y2="35.32"/>
					<line class="st28" x1="318.97" y1="60.96" x2="343.17" y2="35.32"/>
					<line class="st28" x1="343.17" y1="60.96" x2="367.36" y2="35.32"/>
					<line class="st28" x1="367.36" y1="60.96" x2="391.56" y2="35.32"/>
					<line class="st28" x1="391.56" y1="60.96" x2="415.75" y2="35.32"/>
					<line class="st28" x1="415.75" y1="60.96" x2="439.94" y2="35.32"/>
					<polygon class="st34" points="271.53,60.96 468.79,60.96 442.23,35.32 291.94,35.32 					"/>
					<line class="st34" x1="271.53" y1="60.96" x2="271.53" y2="90"/>
				</g>
			</g>
		</g>
	</g>
</g>
<g>
	<g>
		<g>
			<defs>
				<path id="XMLID_4_" d="M167.25,335.93l13.81-35.69c0.66-1.7,3.07-1.7,3.72,0l13.81,35.69H167.25z"/>
			</defs>
			<use xlink:href="#XMLID_4_"  style="overflow:visible;fill:#F5D100;"/>
			<clipPath id="XMLID_9_">
				<use xlink:href="#XMLID_4_"  style="overflow:visible;"/>
			</clipPath>
			<rect x="170.45" y="307.92" class="st35" width="24.52" height="7.57"/>
			<rect x="169.11" y="322.23" class="st35" width="27.73" height="7.57"/>
		</g>
		<rect x="164.72" y="335.93" class="st36" width="36.54" height="3.01"/>
	</g>
	<g>
		<g>
			<defs>
				<path id="XMLID_3_" d="M367.75,336.04l13.81-35.69c0.66-1.7,3.07-1.7,3.72,0l13.81,35.69H367.75z"/>
			</defs>
			<use xlink:href="#XMLID_3_"  style="overflow:visible;fill:#F5D100;"/>
			<clipPath id="XMLID_10_">
				<use xlink:href="#XMLID_3_"  style="overflow:visible;"/>
			</clipPath>
			<rect x="370.95" y="308.03" class="st37" width="24.52" height="7.57"/>
			<rect x="369.61" y="322.34" class="st37" width="27.73" height="7.57"/>
		</g>
		<rect x="365.22" y="336.04" class="st36" width="36.54" height="3.01"/>
	</g>
</g>
<g>
	<g>
		
			<ellipse transform="matrix(0.1473 -0.9891 0.9891 0.1473 -194.6073 326.8307)" class="st3" cx="92.25" cy="276.28" rx="28.67" ry="28.67"/>
		<g>
			<line class="st38" x1="92.25" y1="266.06" x2="92.25" y2="338.94"/>
			<line class="st38" x1="81.1" y1="267.55" x2="92.25" y2="280.05"/>
			<path class="st38" d="M102.14,279.36c-0.8,0.8-9.89,10.27-9.89,10.27"/>
		</g>
	</g>
	<line class="st38" x1="5.94" y1="339.64" x2="486.93" y2="339.64"/>
</g>
</svg>
